<svg xmlns="http://www.w3.org/2000/svg" viewBox="0 0 1600 1100" role="img" aria-labelledby="title desc">
  <title id="title" data-i18n="a11y.comparison_title">Endpoint reconstruction loss compared with LSA-Probe</title>
  <desc id="desc" data-i18n="a11y.comparison_alt">Conceptual comparison showing overlapping endpoint evidence but different minimum normalized perturbation costs for member and non-member candidates at the same degradation threshold.</desc>
  <defs>
    <marker id="arrow" markerWidth="8" markerHeight="8" refX="10" refY="6" orient="auto" viewBox="0 0 12 12"><path d="M1 1l10 5-10 5z" fill="#175c78"/></marker>
    <linearGradient id="spectral" x1="0" y1="0" x2="1" y2="1"><stop stop-color="#175c78"/><stop offset=".52" stop-color="#0f766e"/><stop offset="1" stop-color="#d97706"/></linearGradient>
    <pattern id="noise" width="18" height="18" patternUnits="userSpaceOnUse"><circle cx="3" cy="4" r="1.7" fill="#64748b" opacity=".45"/><circle cx="13" cy="11" r="2" fill="#175c78" opacity=".3"/><path d="M1 15l5-4 4 3 6-6" fill="none" stroke="#94a3b8" stroke-width="1.6" opacity=".55"/></pattern>
    <filter id="shadow" x="-20%" y="-20%" width="140%" height="140%"><feDropShadow dx="0" dy="6" stdDeviation="10" flood-color="#172033" flood-opacity=".07"/></filter>
  </defs>
  <rect x="8" y="8" width="1584" height="1084" rx="30" fill="#fff" stroke="#cbd5e1" stroke-width="2"/>
  <text x="72" y="76" fill="#0f172a" font-family="Inter,Arial,sans-serif" font-size="36" font-weight="750" data-i18n="svg.compare.endpoint_title">Endpoint reconstruction loss</text>
  <text x="1488" y="76" text-anchor="end" fill="#475569" font-family="Inter,Arial,sans-serif" font-size="24">D(x₀, x̂₀)</text>
  <line x1="72" y1="103" x2="1528" y2="103" stroke="#d9e1ea" stroke-width="2"/>

  <g font-family="Inter,Arial,sans-serif">
    <text x="82" y="178" fill="#0f766e" font-size="24" font-weight="700" data-i18n="svg.compare.member_short">Member</text>
    <text x="82" y="355" fill="#9a6413" font-size="24" font-weight="700" data-i18n="svg.compare.nonmember_short">Non-member</text>
  </g>
  <g transform="translate(300 130)">
    <g filter="url(#shadow)"><rect width="218" height="122" rx="16" fill="#e8f1f5" stroke="#cbd5e1"/><rect y="178" width="218" height="122" rx="16" fill="#fff5df" stroke="#e5c986"/></g>
    <g fill="url(#spectral)" opacity=".9">
      <rect x="22" y="61" width="13" height="44"/><rect x="43" y="29" width="13" height="76"/><rect x="64" y="49" width="13" height="56"/><rect x="85" y="19" width="13" height="86"/><rect x="106" y="42" width="13" height="63"/><rect x="127" y="30" width="13" height="75"/><rect x="148" y="54" width="13" height="51"/><rect x="169" y="25" width="13" height="80"/><rect x="190" y="65" width="13" height="40"/>
      <rect x="22" y="239" width="13" height="44"/><rect x="43" y="207" width="13" height="76"/><rect x="64" y="227" width="13" height="56"/><rect x="85" y="197" width="13" height="86"/><rect x="106" y="220" width="13" height="63"/><rect x="127" y="208" width="13" height="75"/><rect x="148" y="232" width="13" height="51"/><rect x="169" y="203" width="13" height="80"/><rect x="190" y="243" width="13" height="40"/>
    </g>
  </g>
  <path d="M538 191h116" stroke="#175c78" stroke-width="3" marker-end="url(#arrow)"/><path d="M538 369h116" stroke="#175c78" stroke-width="3" marker-end="url(#arrow)"/>
  <text x="596" y="161" text-anchor="middle" fill="#475569" font-family="Inter,Arial,sans-serif" font-size="21" data-i18n="svg.compare.forward_reverse">Forward → reverse</text>
  <g transform="translate(674 130)"><rect width="218" height="122" rx="16" fill="url(#noise)" stroke="#cbd5e1"/><rect y="178" width="218" height="122" rx="16" fill="url(#noise)" stroke="#cbd5e1"/></g>
  <path d="M912 191h114" stroke="#175c78" stroke-width="3" marker-end="url(#arrow)"/><path d="M912 369h114" stroke="#175c78" stroke-width="3" marker-end="url(#arrow)"/>
  <g transform="translate(1046 130)">
    <g filter="url(#shadow)"><rect width="218" height="122" rx="16" fill="#e8f1f5" stroke="#cbd5e1"/><rect y="178" width="218" height="122" rx="16" fill="#fff5df" stroke="#e5c986"/></g>
    <path d="M18 76c16-45 31 45 47 0s31 45 47 0 31 45 47 0 31 45 47 0" fill="none" stroke="#0f766e" stroke-width="5"/><path d="M18 254c16-45 31 45 47 0s31 45 47 0 31 45 47 0 31 45 47 0" fill="none" stroke="#d97706" stroke-width="5"/>
  </g>
  <g transform="translate(1320 160)">
    <circle cx="61" cy="85" r="65" fill="#0f766e" opacity=".2" stroke="#0f766e" stroke-width="3"/><circle cx="111" cy="85" r="65" fill="#d97706" opacity=".2" stroke="#d97706" stroke-width="3" stroke-dasharray="10 8"/>
    <text x="86" y="193" text-anchor="middle" fill="#475569" font-family="Inter,Arial,sans-serif" font-size="23" font-weight="700" data-i18n="svg.compare.overlap">Overlapping endpoint evidence</text>
  </g>

  <rect x="40" y="515" width="1520" height="535" rx="24" fill="#f8fafc" stroke="#cbd5e1" stroke-width="2"/>
  <text x="72" y="575" fill="#0f172a" font-family="Inter,Arial,sans-serif" font-size="36" font-weight="750" data-i18n="svg.compare.lsa_title">LSA-Probe: minimum cost to break local stability</text>
  <text x="1488" y="575" text-anchor="end" fill="#475569" font-family="Inter,Arial,sans-serif" font-size="24">C<tspan baseline-shift="sub" font-size="18">adv</tspan>(x₀;t,τ)</text>
  <line x1="72" y1="603" x2="1528" y2="603" stroke="#d9e1ea" stroke-width="2"/>
  <text x="82" y="695" fill="#0f766e" font-family="Inter,Arial,sans-serif" font-size="25" font-weight="700"><tspan data-i18n="svg.compare.member_short">Member</tspan><tspan dx="12">x</tspan><tspan baseline-shift="sub" font-size="18">t</tspan></text>
  <text x="82" y="875" fill="#9a6413" font-family="Inter,Arial,sans-serif" font-size="25" font-weight="700"><tspan data-i18n="svg.compare.nonmember_short">Non-member</tspan><tspan dx="12">x</tspan><tspan baseline-shift="sub" font-size="18">t</tspan></text>
  <circle cx="310" cy="682" r="50" fill="#e7f5f1" stroke="#0f766e" stroke-width="4"/><circle cx="310" cy="862" r="50" fill="#fff5df" stroke="#d97706" stroke-width="4" stroke-dasharray="10 7"/>
  <text x="310" y="690" text-anchor="middle" fill="#0f172a" font-family="Inter,Arial,sans-serif" font-size="25">x<tspan baseline-shift="sub" font-size="18">t</tspan></text><text x="310" y="870" text-anchor="middle" fill="#0f172a" font-family="Inter,Arial,sans-serif" font-size="25">x<tspan baseline-shift="sub" font-size="18">t</tspan></text>
  <path d="M380 682h420" stroke="#0f766e" stroke-width="9" stroke-linecap="round" marker-end="url(#arrow)"/><path d="M380 862h230" stroke="#d97706" stroke-width="9" stroke-linecap="round" marker-end="url(#arrow)"/>
  <text x="590" y="653" text-anchor="middle" fill="#0f766e" font-family="Inter,Arial,sans-serif" font-size="23" font-weight="700" data-i18n="svg.compare.larger_budget">Larger minimum budget</text>
  <text x="495" y="833" text-anchor="middle" fill="#9a6413" font-family="Inter,Arial,sans-serif" font-size="23" font-weight="700" data-i18n="svg.compare.smaller_budget">Smaller minimum budget</text>
  <text x="590" y="735" text-anchor="middle" fill="#475569" font-family="Inter,Arial,sans-serif" font-size="22">δ<tspan baseline-shift="sub" font-size="16">t</tspan><tspan> = σ</tspan><tspan baseline-shift="sub" font-size="16">t</tspan><tspan> δ&#x0303;</tspan></text><text x="495" y="915" text-anchor="middle" fill="#475569" font-family="Inter,Arial,sans-serif" font-size="22">δ<tspan baseline-shift="sub" font-size="16">t</tspan><tspan> = σ</tspan><tspan baseline-shift="sub" font-size="16">t</tspan><tspan> δ&#x0303;</tspan></text>
  <rect x="835" y="635" width="225" height="278" rx="20" fill="#fff" stroke="#b7cbd5" stroke-width="2"/>
  <path d="M878 682c55-54 84 58 137 0M878 862c55-54 84 58 137 0" fill="none" stroke="#175c78" stroke-width="4"/>
  <text x="948" y="770" text-anchor="middle" fill="#0f172a" font-family="Inter,Arial,sans-serif" font-size="26" font-weight="700"><tspan>R</tspan><tspan baseline-shift="sub" font-size="18">t</tspan><tspan>(·;θ)</tspan></text>
  <text x="948" y="807" text-anchor="middle" fill="#475569" font-family="Inter,Arial,sans-serif" font-size="21" data-i18n="svg.compare.reverse_process">Reverse process</text>
  <path d="M1080 682h125" stroke="#175c78" stroke-width="3" marker-end="url(#arrow)"/><path d="M1080 862h125" stroke="#175c78" stroke-width="3" marker-end="url(#arrow)"/>
  <rect x="1225" y="635" width="295" height="278" rx="20" fill="#fff" stroke="#e45756" stroke-width="3"/>
  <line x1="1254" y1="770" x2="1492" y2="770" stroke="#e45756" stroke-width="3" stroke-dasharray="10 8"/>
  <text x="1373" y="730" text-anchor="middle" fill="#e45756" font-family="Inter,Arial,sans-serif" font-size="24" font-weight="700" data-i18n="svg.compare.same_tau">Same fixed threshold τ</text>
  <path d="M1260 682c22-36 43 34 64 0s43 34 64 0 43 34 64 0" fill="none" stroke="#0f766e" stroke-width="5"/><path d="M1260 862c22-36 43 34 64 0s43 34 64 0 43 34 64 0" fill="none" stroke="#d97706" stroke-width="5"/>
  <rect x="660" y="963" width="880" height="64" rx="16" fill="#e8f1f5"/>
  <text x="1100" y="1005" text-anchor="middle" fill="#0f172a" font-family="Inter,Arial,sans-serif" font-size="28" font-weight="750">C<tspan baseline-shift="sub" font-size="20">adv</tspan>(member) &gt; C<tspan baseline-shift="sub" font-size="20">adv</tspan>(non-member) · <tspan data-i18n="svg.compare.member_like">Higher cost → more member-like</tspan></text>
</svg>
